<?xml version="1.0" encoding="UTF-8" standalone="no"?>
<svg
   xmlns:dc="http://purl.org/dc/elements/1.1/"
   xmlns:cc="http://creativecommons.org/ns#"
   xmlns:rdf="http://www.w3.org/1999/02/22-rdf-syntax-ns#"
   xmlns:svg="http://www.w3.org/2000/svg"
   xmlns="http://www.w3.org/2000/svg"
   xmlns:sodipodi="http://sodipodi.sourceforge.net/DTD/sodipodi-0.dtd"
   xmlns:inkscape="http://www.inkscape.org/namespaces/inkscape"
   sodipodi:docname="github-white.svg"
   inkscape:version="1.0 (4035a4f, 2020-05-01)"
   id="svg1146"
   version="1.1"
   viewBox="0 0 11.493059 11.209466"
   height="11.209466mm"
   width="11.493059mm">
  <defs
     id="defs1140" />
  <sodipodi:namedview
     inkscape:window-maximized="0"
     inkscape:window-y="214"
     inkscape:window-x="472"
     inkscape:window-height="943"
     inkscape:window-width="1252"
     fit-margin-bottom="0"
     fit-margin-right="0"
     fit-margin-left="0"
     fit-margin-top="0"
     inkscape:pagecheckerboard="true"
     showgrid="false"
     inkscape:document-rotation="0"
     inkscape:current-layer="layer1"
     inkscape:document-units="mm"
     inkscape:cy="118.32611"
     inkscape:cx="50.290762"
     inkscape:zoom="0.35"
     inkscape:pageshadow="2"
     inkscape:pageopacity="0.0"
     borderopacity="1.0"
     bordercolor="#666666"
     pagecolor="#ffffff"
     id="base" />
  <metadata
     id="metadata1143">
    <rdf:RDF>
      <cc:Work
         rdf:about="">
        <dc:format>image/svg+xml</dc:format>
        <dc:type
           rdf:resource="http://purl.org/dc/dcmitype/StillImage" />
        <dc:title></dc:title>
      </cc:Work>
    </rdf:RDF>
  </metadata>
  <g
     transform="translate(-92.527236,-116.85955)"
     id="layer1"
     inkscape:groupmode="layer"
     inkscape:label="Layer 1">
    <path
       d="m 98.27328,116.85955 c -3.172883,0 -5.746044,2.57281 -5.746044,5.74675 0,2.53894 1.646414,4.69265 3.929944,5.45254 0.287514,0.0529 0.392289,-0.12454 0.392289,-0.27694 0,-0.13652 -0.0049,-0.49776 -0.0078,-0.97719 -1.598436,0.34713 -1.935691,-0.77047 -1.935691,-0.77047 -0.261409,-0.66392 -0.638175,-0.84067 -0.638175,-0.84067 -0.521759,-0.3563 0.03951,-0.34925 0.03951,-0.34925 0.576791,0.0406 0.88018,0.59232 0.88018,0.59232 0.512586,0.87806 1.345142,0.62441 1.67252,0.47731 0.05221,-0.37113 0.20073,-0.62442 0.364772,-0.768 -1.275997,-0.14499 -2.617611,-0.63818 -2.617611,-2.84021 0,-0.62724 0.224014,-1.14053 0.591608,-1.542 -0.05927,-0.14534 -0.256469,-0.72989 0.05644,-1.52082 0,0 0.482247,-0.15452 1.580092,0.58914 0.458258,-0.12771 0.950031,-0.19121 1.438628,-0.19368 0.488244,0.002 0.979664,0.066 1.438628,0.19368 1.09713,-0.74366 1.57868,-0.58914 1.57868,-0.58914 0.31361,0.79093 0.11641,1.37548 0.0575,1.52082 0.3683,0.40147 0.59055,0.91476 0.59055,1.542 0,2.20768 -1.34373,2.69345 -2.623605,2.83562 0.206022,0.17745 0.389819,0.52811 0.389819,1.06398 0,0.76835 -0.0071,1.38818 -0.0071,1.57656 0,0.15382 0.103717,0.33267 0.395106,0.27658 2.28177,-0.76164 3.92677,-2.91394 3.92677,-5.45218 0,-3.17394 -2.57316,-5.74675 -5.747095,-5.74675"
       style="fill:#ffffff;fill-opacity:1;fill-rule:evenodd;stroke:none;stroke-width:0.0352777"
       id="path166" />
  </g>
</svg>
